SRRun01_grf
version=1
nRows=34
nColumns=19
inDegrees=no
endheader
time	ground_force_r_vx	ground_force_r_vy	ground_force_r_vz	ground_force_r_px	ground_force_r_py	ground_force_r_pz	ground_force_r_mx	ground_force_r_my	ground_force_r_mz	ground_force_l_vx	ground_force_l_vy	ground_force_l_vz	ground_force_l_px	ground_force_l_py	ground_force_l_pz	ground_force_l_mx	ground_force_l_my	ground_force_l_mz
    147.49900000	      0.00000000	      0.00000000	      0.00000000	      0.00000000	      0.00000000	      0.00000000	      0.00000000	      0.00000000	      0.00000000	      0.00000000	      0.00000000	      0.00000000	      0.00000000	      0.00000000	      0.00000000	      0.00000000	      0.00000000	      0.00000000
    147.50000000	      0.00000000	      0.00000000	      0.00000000	      0.00000000	      0.00000000	      0.00000000	      0.00000000	      0.00000000	      0.00000000	      0.00000000	      0.00000000	      0.00000000	      0.00000000	      0.00000000	      0.00000000	      0.00000000	      0.00000000	      0.00000000
    147.50100000	      0.00000000	      0.00000000	      0.00000000	      0.00000000	      0.00000000	      0.00000000	      0.00000000	      0.00000000	      0.00000000	    -10.47046424	     61.00694712	    -19.56522103	      0.66351837	      0.00000000	     -0.46449627	      0.00000279	      4.67540653	      0.00000177
    147.50200000	      0.00000000	      0.00000000	      0.00000000	      0.00000000	      0.00000000	      0.00000000	      0.00000000	      0.00000000	      0.00000000	    -31.31110292	     83.67689086	    -13.54958021	      0.68739938	      0.00000000	     -0.44857595	      0.00000291	      3.32262998	      0.00000325
    147.50300000	      0.00000000	      0.00000000	      0.00000000	      0.00000000	      0.00000000	      0.00000000	      0.00000000	      0.00000000	      0.00000000	    -52.64326792	    107.34828318	     -7.17863636	      0.70999561	      0.00000000	     -0.43352857	      0.00000310	      1.81771321	      0.00000467
    147.50400000	      0.00000000	      0.00000000	      0.00000000	      0.00000000	      0.00000000	      0.00000000	      0.00000000	      0.00000000	      0.00000000	    -74.26379867	    132.05666490	     -0.33012376	      0.73077594	      0.00000000	     -0.41985923	      0.00000336	      0.19971802	      0.00000603
    147.50500000	      0.00000000	      0.00000000	      0.00000000	      0.00000000	      0.00000000	      0.00000000	      0.00000000	      0.00000000	      0.00000000	    -95.96303414	    157.82511722	      7.14007926	      0.74929564	      0.00000000	     -0.40793190	      0.00000370	     -1.46738853	      0.00000736
    147.50600000	      0.00000000	      0.00000000	      0.00000000	      0.00000000	      0.00000000	      0.00000000	      0.00000000	      0.00000000	      0.00000000	   -117.50821696	    184.64271465	     15.38035845	      0.76522443	      0.00000000	     -0.39794940	      0.00000412	     -3.09665118	      0.00000863
    147.50700000	      0.00000000	      0.00000000	      0.00000000	      0.00000000	      0.00000000	      0.00000000	      0.00000000	      0.00000000	      0.00000000	   -138.62360383	    212.44727485	     24.52142282	      0.77837046	      0.00000000	     -0.38995522	      0.00000461	     -4.58360839	      0.00000986
    147.50800000	      0.00000000	      0.00000000	      0.00000000	      0.00000000	      0.00000000	      0.00000000	      0.00000000	      0.00000000	      0.00000000	   -158.97062433	    241.11545519	     34.65281849	      0.78869631	      0.00000000	     -0.38385277	      0.00000515	     -5.81487185	      0.00001104
    147.50900000	      0.00000000	      0.00000000	      0.00000000	      0.00000000	      0.00000000	      0.00000000	      0.00000000	      0.00000000	      0.00000000	   -178.13212142	    270.46174040	     45.80090217	      0.79632298	      0.00000000	     -0.37943668	      0.00000571	     -6.67902366	      0.00001215
    147.51000000	      0.00000000	      0.00000000	      0.00000000	      0.00000000	      0.00000000	      0.00000000	      0.00000000	      0.00000000	      0.00000000	   -195.60492421	    300.24644692	     57.91091710	      0.80151854	      0.00000000	     -0.37643006	      0.00000628	     -7.07874981	      0.00001318
    147.51100000	      0.00000000	      0.00000000	      0.00000000	      0.00000000	      0.00000000	      0.00000000	      0.00000000	      0.00000000	      0.00000000	   -210.80469275	    330.19182399	     70.83532565	      0.80467081	      0.00000000	     -0.37452276	      0.00000683	     -6.94279133	      0.00001412
    147.51200000	      0.00000000	      0.00000000	      0.00000000	      0.00000000	      0.00000000	      0.00000000	      0.00000000	      0.00000000	      0.00000000	   -223.08602608	    360.00452240	     84.33018468	      0.80624612	      0.00000000	     -0.37340589	      0.00000732	     -6.23607957	      0.00001494
    147.51300000	      0.00000000	      0.00000000	      0.00000000	      0.00000000	      0.00000000	      0.00000000	      0.00000000	      0.00000000	      0.00000000	   -231.77907507	    389.40195608	     98.06087767	      0.80673827	      0.00000000	     -0.37279928	      0.00000774	     -4.96655213	      0.00001563
    147.51400000	      0.00000000	      0.00000000	      0.00000000	      0.00000000	      0.00000000	      0.00000000	      0.00000000	      0.00000000	      0.00000000	   -236.24142610	    418.13937881	    111.61755460	      0.80661463	      0.00000000	     -0.37246961	      0.00000807	     -3.18769458	      0.00001619
    147.51500000	      0.00000000	      0.00000000	      0.00000000	      0.00000000	      0.00000000	      0.00000000	      0.00000000	      0.00000000	      0.00000000	   -235.92134232	    446.03402958	    124.53918329	      0.80626726	      0.00000000	     -0.37223896	      0.00000830	     -0.99661285	      0.00001661
    147.51600000	      0.00000000	      0.00000000	      0.00000000	      0.00000000	      0.00000000	      0.00000000	      0.00000000	      0.00000000	      0.00000000	   -230.42621650	    472.98281817	    136.34374916	      0.80597721	      0.00000000	     -0.37198545	      0.00000844	      1.47192001	      0.00001687
    147.51700000	      0.00000000	      0.00000000	      0.00000000	      0.00000000	      0.00000000	      0.00000000	      0.00000000	      0.00000000	      0.00000000	   -219.58866810	    498.97095789	    146.56152669	      0.80589718	      0.00000000	     -0.37163812	      0.00000852	      4.05461890	      0.00001701
    147.51800000	      0.00000000	      0.00000000	      0.00000000	      0.00000000	      0.00000000	      0.00000000	      0.00000000	      0.00000000	      0.00000000	   -203.52216720	    524.07059046	    154.76855316	      0.80605422	      0.00000000	     -0.37116852	      0.00000855	      6.57102841	      0.00001702
    147.51900000	      0.00000000	      0.00000000	      0.00000000	      0.00000000	      0.00000000	      0.00000000	      0.00000000	      0.00000000	      0.00000000	   -182.65841559	    548.43035855	    160.61786828	      0.80637037	      0.00000000	     -0.37058039	      0.00000858	      8.83594581	      0.00001693
    147.52000000	      0.00000000	      0.00000000	      0.00000000	      0.00000000	      0.00000000	      0.00000000	      0.00000000	      0.00000000	      0.00000000	   -157.76009641	    572.25843413	    163.86618172	      0.80669634	      0.00000000	     -0.36989844	      0.00000867	     10.67183758	      0.00001679
    147.52100000	      0.00000000	      0.00000000	      0.00000000	      0.00000000	      0.00000000	      0.00000000	      0.00000000	      0.00000000	      0.00000000	   -129.90497241	    595.80212178	    164.39350050	      0.80685137	      0.00000000	     -0.36915746	      0.00000886	     11.92032145	      0.00001662
    147.52200000	      0.00000000	      0.00000000	      0.00000000	      0.00000000	      0.00000000	      0.00000000	      0.00000000	      0.00000000	      0.00000000	   -100.44025878	    619.32671491	    162.21350296	      0.80666177	      0.00000000	     -0.36839278	      0.00000920	     12.45205791	      0.00001648
    147.52300000	      0.00000000	      0.00000000	      0.00000000	      0.00000000	      0.00000000	      0.00000000	      0.00000000	      0.00000000	      0.00000000	    -70.90925017	    643.09526124	    157.47346894	      0.80599174	      0.00000000	     -0.36763336	      0.00000972	     12.17472768	      0.00001642
    147.52400000	      0.00000000	      0.00000000	      0.00000000	      0.00000000	      0.00000000	      0.00000000	      0.00000000	      0.00000000	      0.00000000	    -42.95502778	    667.34994782	    150.44407643	      0.80476216	      0.00000000	     -0.36689779	      0.00001046	     11.03907045	      0.00001646
    147.52500000	      0.00000000	      0.00000000	      0.00000000	      0.00000000	      0.00000000	      0.00000000	      0.00000000	      0.00000000	      0.00000000	    -18.20847752	    692.29534149	    141.50062282	      0.80295607	      0.00000000	     -0.36619312	      0.00001142	      9.04309340	      0.00001665
    147.52600000	      0.00000000	      0.00000000	      0.00000000	      0.00000000	      0.00000000	      0.00000000	      0.00000000	      0.00000000	      0.00000000	      1.83037496	    718.08368049	    131.09777643	      0.80061214	      0.00000000	     -0.36551586	      0.00001258	      6.23447289	      0.00001700
    147.52700000	      0.00000000	      0.00000000	      0.00000000	      0.00000000	      0.00000000	      0.00000000	      0.00000000	      0.00000000	      0.00000000	     15.90774397	    744.80252491	    119.74002638	      0.79780969	      0.00000000	     -0.36485458	      0.00001390	      2.71099090	      0.00001753
    147.52800000	      0.00000000	      0.00000000	      0.00000000	      0.00000000	      0.00000000	      0.00000000	      0.00000000	      0.00000000	      0.00000000	     23.11813604	    772.46510618	    107.95005857	      0.79464939	      0.00000000	     -0.36419351	      0.00001534	     -1.38121298	      0.00001822
    147.52900000	      0.00000000	      0.00000000	      0.00000000	      0.00000000	      0.00000000	      0.00000000	      0.00000000	      0.00000000	      0.00000000	     22.98372272	    801.00374907	     96.23751141	      0.79123416	      0.00000000	     -0.36351636	      0.00001684	     -5.85164855	      0.00001909
    147.53000000	      0.00000000	      0.00000000	      0.00000000	      0.00000000	      0.00000000	      0.00000000	      0.00000000	      0.00000000	      0.00000000	     15.50307097	    830.26702651	     85.07072829	      0.78765393	      0.00000000	     -0.36280966	      0.00001832	    -10.47167559	      0.00002010
    147.53100000	      0.00000000	      0.00000000	      0.00000000	      0.00000000	      0.00000000	      0.00000000	      0.00000000	      0.00000000	      0.00000000	      1.16343854	    860.02175229	     74.85383631	      0.78397635	      0.00000000	     -0.36206502	      0.00001973	    -14.98287863	      0.00002124
    147.53200000	      0.00000000	      0.00000000	      0.00000000	      0.00000000	      0.00000000	      0.00000000	      0.00000000	      0.00000000	      0.00000000	    -19.08622469	    889.96103748	     65.91053504	      0.78024451	      0.00000000	     -0.36127971	      0.00002102	    -19.10774595	      0.00002247
